<svg xmlns="http://www.w3.org/2000/svg" width="300" height="400"><defs><mask maskUnits="userSpaceOnUse" id="c"><rect ry="40" y="-1325.603" x="-451.938" height="400.778" width="300.059" style="opacity:1;fill:#ff3737;fill-opacity:1;fill-rule:nonzero;stroke:none;stroke-width:10;stroke-linecap:butt;stroke-linejoin:round;stroke-miterlimit:4;stroke-dasharray:none;stroke-dashoffset:0;stroke-opacity:1" transform="scale(-1)"/></mask><mask maskUnits="userSpaceOnUse" id="b"><rect ry="40" y="652.284" height="400.778" width="300.059" style="opacity:1;fill:#ff3737;fill-opacity:1;fill-rule:nonzero;stroke:none;stroke-width:10;stroke-linecap:butt;stroke-linejoin:round;stroke-miterlimit:4;stroke-dasharray:none;stroke-dashoffset:0;stroke-opacity:1"/></mask><filter style="color-interpolation-filters:sRGB" id="a"><feGaussianBlur stdDeviation="2.51 2.51" result="blur"/></filter></defs><g transform="translate(0 -652.362)"><rect style="opacity:1;fill:#ff3737;fill-opacity:1;fill-rule:nonzero;stroke:none;stroke-width:10;stroke-linecap:butt;stroke-linejoin:round;stroke-miterlimit:4;stroke-dasharray:none;stroke-dashoffset:0;stroke-opacity:1" width="300.059" height="400.778" y="652.284" ry="40"/><path style="fill:#fff;fill-opacity:.78431373;fill-rule:evenodd;stroke:none;stroke-width:1px;stroke-linecap:butt;stroke-linejoin:miter;stroke-opacity:1;filter:url(#a)" d="M-4.769 775.071c-4.881-33.076-12.077-100.834 3.49-123.007 20.277-26.12 234.78-20.433 264.593 1.846 12.9 8.739-204.155 2.567-227.406 31.19C13.2 712.468.651 818.187-4.769 775.071Z" mask="url(#b)"/><path d="M151.736 1025.018c-3.327-9.314-10.249-68.454 5.318-90.627 20.277-26.12 219.436-16.458 231.555-9.932 11.074 5.317-178.604.06-204.851 34.867-21.594 30-26.501 82.178-32.022 65.692z" style="fill:#000;fill-opacity:.39215687;fill-rule:evenodd;stroke:none;stroke-width:1px;stroke-linecap:butt;stroke-linejoin:miter;stroke-opacity:1;filter:url(#a)" transform="rotate(180 225.969 988.943)" mask="url(#c)"/></g></svg>