<svg xmlns:osb="http://www.openswatchbook.org/uri/2009/osb" xmlns="http://www.w3.org/2000/svg" xmlns:xlink="http://www.w3.org/1999/xlink" width="300" height="400" id="svg2" version="1.1"><defs id="defs4"><clipPath clipPathUnits="userSpaceOnUse" id="clipPath4243"><circle style="opacity:1;fill:#000;fill-opacity:.29670332;fill-rule:nonzero;stroke:#000;stroke-width:19.13299942;stroke-linecap:butt;stroke-linejoin:round;stroke-miterlimit:4;stroke-dasharray:none;stroke-dashoffset:0;stroke-opacity:1" id="circle4245" cx="-264.66" cy="-198.207" r="293.954"/></clipPath><clipPath clipPathUnits="userSpaceOnUse" id="clipPath7847"><ellipse style="opacity:1;fill:#822600;fill-opacity:1;fill-rule:nonzero;stroke:none;stroke-width:12;stroke-linecap:round;stroke-linejoin:round;stroke-miterlimit:4;stroke-dasharray:none;stroke-dashoffset:0;stroke-opacity:1" id="ellipse7849" cx="394" cy="552.362" rx="349.495" ry="216"/></clipPath><clipPath clipPathUnits="userSpaceOnUse" id="clipPath4243-1"><circle style="opacity:1;fill:#000;fill-opacity:.29670332;fill-rule:nonzero;stroke:#000;stroke-width:19.13299942;stroke-linecap:butt;stroke-linejoin:round;stroke-miterlimit:4;stroke-dasharray:none;stroke-dashoffset:0;stroke-opacity:1" id="circle4245-4" cx="-264.66" cy="-198.207" r="293.954"/></clipPath><clipPath clipPathUnits="userSpaceOnUse" id="clipPath7876"><circle style="opacity:1;fill:#000;fill-opacity:.29670332;fill-rule:nonzero;stroke:#000;stroke-width:19.13299942;stroke-linecap:butt;stroke-linejoin:round;stroke-miterlimit:4;stroke-dasharray:none;stroke-dashoffset:0;stroke-opacity:1" id="circle7878" cx="-264.66" cy="-198.207" r="293.954"/></clipPath><clipPath clipPathUnits="userSpaceOnUse" id="clipPath14693"><rect style="opacity:1;fill:#a53c3c;fill-opacity:1;fill-rule:nonzero;stroke:none;stroke-width:8;stroke-linecap:round;stroke-linejoin:round;stroke-miterlimit:4;stroke-dasharray:none;stroke-dashoffset:0;stroke-opacity:1" id="rect14695" width="131.784" height="168.821" x="-332.596" y="383.498" rx="1.255" ry="3.751" transform="rotate(-2)"/></clipPath><clipPath clipPathUnits="userSpaceOnUse" id="clipPath14952"><ellipse style="opacity:1;fill:#a53c3c;fill-opacity:1;fill-rule:nonzero;stroke:none;stroke-width:7;stroke-linecap:round;stroke-linejoin:round;stroke-miterlimit:4;stroke-dasharray:none;stroke-dashoffset:0;stroke-opacity:1" id="ellipse14954" cx="-271.344" cy="647.256" rx="69.057" ry="116.911" transform="rotate(-2)"/></clipPath><linearGradient id="linearGradient10055" osb:paint="solid"><stop style="stop-color:#000;stop-opacity:1" offset="0" id="stop10057"/></linearGradient><pattern y="0" x="0" height="6" width="6" patternUnits="userSpaceOnUse" id="EMFhbasepattern"/><marker orient="auto" refY="0" refX="0" id="Arrow1Lstart" style="overflow:visible"><path id="path4978" d="m0 0 5-5-17.5 5L5 5 0 0Z" style="fill:#000;fill-opacity:1;fill-rule:evenodd;stroke:#ff5c00;stroke-width:1pt;stroke-opacity:1" transform="matrix(.8 0 0 .8 10 0)"/></marker></defs><g id="layer1" transform="translate(0 -652.362)"><g id="g4360" transform="translate(512.082 489.658) scale(.76584)"><circle r="107.567" cy="341.256" cx="-472.783" id="path15137" style="opacity:1;fill:#000;fill-opacity:1;fill-rule:nonzero;stroke:#fff;stroke-width:17.21711159;stroke-linecap:butt;stroke-linejoin:round;stroke-miterlimit:4;stroke-dasharray:none;stroke-dashoffset:0;stroke-opacity:1"/><circle r="87.813" cy="341.627" cx="-472.783" id="path15137-2" style="opacity:1;fill:#fff;fill-opacity:1;fill-rule:nonzero;stroke:none;stroke-width:0;stroke-linecap:butt;stroke-linejoin:round;stroke-miterlimit:4;stroke-dasharray:none;stroke-dashoffset:0;stroke-opacity:0"/><g transform="matrix(.10477 0 0 .08588 -506.329 359.108)" id="g4247"><path id="circle15184" style="opacity:1;fill:none;fill-opacity:1;fill-rule:nonzero;stroke:#000;stroke-width:125.71019745;stroke-linecap:round;stroke-linejoin:round;stroke-miterlimit:4;stroke-dasharray:none;stroke-dashoffset:0;stroke-opacity:1" mask="none" d="M-93.33-74.125a163.919 163.919 0 0 1-224.594-13.082 163.919 163.919 0 0 1 0-224.975A163.919 163.919 0 0 1-93.33-325.263"/></g><use height="100%" width="100%" transform="rotate(-60 -472.858 342.066)" id="use4252" xlink:href="#g4247" y="0" x="0"/><use height="100%" width="100%" transform="rotate(-60 -473.886 342.721)" id="use4254" xlink:href="#use4252" y="0" x="0"/><use height="100%" width="100%" transform="rotate(-60 -473.886 342.721)" id="use4256" xlink:href="#use4254" y="0" x="0"/><use height="100%" width="100%" transform="rotate(-60 -473.886 342.721)" id="use4258" xlink:href="#use4256" y="0" x="0"/><use height="100%" width="100%" transform="rotate(-60 -473.886 342.721)" id="use4260" xlink:href="#use4258" y="0" x="0"/><circle r="18.188" cy="341.516" cx="-472.931" id="path15154-5" style="opacity:1;fill:none;fill-opacity:1;fill-rule:nonzero;stroke:#000;stroke-width:12.28584385;stroke-linecap:butt;stroke-linejoin:round;stroke-miterlimit:4;stroke-dasharray:none;stroke-dashoffset:0;stroke-opacity:1"/></g><g transform="translate(512.082 692.158) scale(.76584)" id="g4206"><circle style="opacity:1;fill:#000;fill-opacity:1;fill-rule:nonzero;stroke:#fff;stroke-width:17.21711159;stroke-linecap:butt;stroke-linejoin:round;stroke-miterlimit:4;stroke-dasharray:none;stroke-dashoffset:0;stroke-opacity:1" id="circle4208" cx="-472.783" cy="341.256" r="107.567"/><circle style="opacity:1;fill:#fff;fill-opacity:1;fill-rule:nonzero;stroke:none;stroke-width:0;stroke-linecap:butt;stroke-linejoin:round;stroke-miterlimit:4;stroke-dasharray:none;stroke-dashoffset:0;stroke-opacity:0" id="circle4210" cx="-472.783" cy="341.627" r="87.813"/><g id="g4212" transform="matrix(.10477 0 0 .08588 -506.329 359.108)"><path d="M-93.33-74.125a163.919 163.919 0 0 1-224.594-13.082 163.919 163.919 0 0 1 0-224.975A163.919 163.919 0 0 1-93.33-325.263" mask="none" style="opacity:1;fill:none;fill-opacity:1;fill-rule:nonzero;stroke:#000;stroke-width:125.71019745;stroke-linecap:round;stroke-linejoin:round;stroke-miterlimit:4;stroke-dasharray:none;stroke-dashoffset:0;stroke-opacity:1" id="path4214"/></g><use x="0" y="0" xlink:href="#g4247" id="use4216" transform="rotate(-60 -472.858 342.066)" width="100%" height="100%"/><use x="0" y="0" xlink:href="#use4252" id="use4218" transform="rotate(-60 -473.886 342.721)" width="100%" height="100%"/><use x="0" y="0" xlink:href="#use4254" id="use4220" transform="rotate(-60 -473.886 342.721)" width="100%" height="100%"/><use x="0" y="0" xlink:href="#use4256" id="use4222" transform="rotate(-60 -473.886 342.721)" width="100%" height="100%"/><use x="0" y="0" xlink:href="#use4258" id="use4224" transform="rotate(-60 -473.886 342.721)" width="100%" height="100%"/><circle style="opacity:1;fill:none;fill-opacity:1;fill-rule:nonzero;stroke:#000;stroke-width:12.28584385;stroke-linecap:butt;stroke-linejoin:round;stroke-miterlimit:4;stroke-dasharray:none;stroke-dashoffset:0;stroke-opacity:1" id="circle4226" cx="-472.931" cy="341.516" r="18.188"/></g></g></svg>